<svg width="48" height="48" viewBox="0 0 48 48" fill="none" xmlns="http://www.w3.org/2000/svg">
<path d="M36.7107 17.4823C36.7311 17.7665 36.731 18.0508 36.731 18.3351C36.731 27.0051 30.1321 36.995 18.0711 36.995C14.3553 36.995 10.9036 35.9188 8 34.0509C8.52794 34.1118 9.0355 34.1321 9.58376 34.1321C12.6497 34.1321 15.4721 33.0966 17.7259 31.3301C14.8427 31.2691 12.4264 29.3808 11.5939 26.7818C12 26.8427 12.4061 26.8833 12.8325 26.8833C13.4213 26.8833 14.0102 26.8021 14.5584 26.66C11.5533 26.0508 9.29944 23.4112 9.29944 20.2234V20.1422C10.1725 20.6295 11.1878 20.9341 12.2639 20.9747C10.4974 19.797 9.34007 17.7868 9.34007 15.5127C9.34007 14.2945 9.66488 13.1777 10.2334 12.2031C13.4619 16.1828 18.3147 18.7817 23.7563 19.066C23.6548 18.5787 23.5939 18.0712 23.5939 17.5635C23.5939 13.9493 26.5178 11.0051 30.1523 11.0051C32.0406 11.0051 33.7462 11.797 34.9442 13.0762C36.4264 12.7919 37.8477 12.2437 39.1066 11.4924C38.6192 13.0153 37.5837 14.2945 36.2234 15.1066C37.5432 14.9646 38.8224 14.599 40 14.0915C39.1067 15.3909 37.9899 16.5482 36.7107 17.4823Z" fill="#1DA1F2"/>
</svg>
