<svg width="145" height="46" viewBox="0 0 145 46" fill="none" xmlns="http://www.w3.org/2000/svg">
<path d="M82.6081 27.6915H65.1671V32.3986H82.6081V27.6915Z" fill="url(#paint0_linear_262_440)"/>
<path d="M59.1682 45.9745C60.4333 45.2816 63.1875 42.7901 64.2759 41.5432L64.5169 41.2673H82.6103V45.9745H59.1682Z" fill="url(#paint1_linear_262_440)"/>
<path d="M64.5158 18.8628L64.2748 18.5869C63.1864 17.339 60.0991 14.8486 58.8339 14.1556H82.6081V18.8628H64.5147H64.5158Z" fill="url(#paint2_linear_262_440)"/>
<path d="M43.754 41.3923L45.0384 41.4457C45.1991 41.4522 45.3608 41.4564 45.5226 41.4564C50.7921 41.4564 55.3577 37.8282 56.6496 32.8217L42.2457 37.9277L40.4363 33.7734L57.6095 27.69H61.4895L61.5645 29.047C61.5806 29.3368 61.5891 29.6372 61.5891 29.9388C61.5891 38.5105 54.8799 45.553 46.3164 45.9722L45.7604 45.9989L43.754 41.3912V41.3923Z" fill="url(#paint3_linear_262_440)"/>
<path d="M54.6732 23.2407C52.4771 20.3524 49.1413 18.6961 45.5226 18.6961C42.2049 18.6961 39.0469 20.1439 36.8562 22.6697L36.0196 23.6353L34.011 19.0222L34.4148 18.6351C37.424 15.748 41.3694 14.1579 45.5237 14.1579C50.3046 14.1579 54.8081 16.2666 57.8783 19.945L58.52 20.7256L55.9822 24.9719L54.6742 23.2428L54.6732 23.2407Z" fill="url(#paint4_linear_262_440)"/>
<path d="M33.8674 32.0379L19.908 0L0 46H7.37446L31.0629 37.6069L34.6934 46H39.951L33.8685 32.0379H33.8674ZM7.10879 41.5131L19.908 11.8192L29.3457 33.6387L7.10879 41.5131Z" fill="url(#paint5_linear_262_440)"/>
<path d="M86.7463 45.9743V41.1025H99.9108C104.003 41.1025 107.115 40.0225 109.159 37.8913C111.208 35.7559 112.246 32.5041 112.246 28.2279V22.7765C112.246 18.4799 111.207 15.2132 109.158 13.0681C107.114 10.9284 104.003 9.84304 99.9108 9.84304H86.7463V5.30378H100.36C106.018 5.30378 110.387 6.79441 113.344 9.73397C116.302 12.6735 117.803 17.016 117.803 22.6396V28.6374C117.803 34.3401 116.323 38.7029 113.404 41.6029C110.486 44.5029 106.097 45.9732 100.361 45.9732H86.7473L86.7463 45.9743Z" fill="url(#paint6_linear_262_440)"/>
<path d="M91.073 19.0199H86.7463V32.3084H91.073V19.0199Z" fill="url(#paint7_linear_262_440)"/>
<path d="M140.435 24.2404C142.133 22.5263 143.027 20.2123 143.027 17.5122V16.4686C143.027 13.6595 142.273 11.3198 140.785 9.51693C138.481 6.72387 134.47 5.30702 128.864 5.30702H115.073C116.783 6.25123 119.435 8.33213 120.901 10.0056L121.021 10.1425H128.863C129.265 10.1425 129.672 10.1521 130.108 10.1724C134.049 10.3563 138.078 11.2482 138.078 16.4675V17.5112C138.078 20.1353 136.797 21.6612 134.046 22.3156L133.388 22.4717C132.999 22.5637 132.601 22.6108 132.201 22.6108H124.632V26.8463H132.264C132.623 26.8463 132.982 26.872 133.338 26.9233L134.271 27.057C138.018 27.5959 139.763 29.4405 139.763 32.8623V34.1049C139.763 38.334 137.347 40.6031 132.375 41.0437C131.76 41.0982 131.111 41.126 130.446 41.126H120.973L120.853 41.2629C119.383 42.93 116.659 45.0408 114.954 45.9743L116.263 45.9358H131.59C136.257 45.7369 139.902 44.2741 142.131 41.7077C143.844 39.7348 144.712 37.177 144.712 34.1059V32.8634C144.712 29.0876 143.236 26.1181 140.435 24.2404Z" fill="url(#paint8_linear_262_440)"/>
<defs>
<linearGradient id="paint0_linear_262_440" x1="-579.81" y1="23" x2="655.984" y2="23" gradientUnits="userSpaceOnUse">
<stop stop-color="#31457F"/>
<stop offset="1" stop-color="#C42B5B"/>
</linearGradient>
<linearGradient id="paint1_linear_262_440" x1="-409.729" y1="23" x2="535.938" y2="23" gradientUnits="userSpaceOnUse">
<stop stop-color="#31457F"/>
<stop offset="1" stop-color="#C42B5B"/>
</linearGradient>
<linearGradient id="paint2_linear_262_440" x1="-409.731" y1="23" x2="535.964" y2="23" gradientUnits="userSpaceOnUse">
<stop stop-color="#31457F"/>
<stop offset="1" stop-color="#C42B5B"/>
</linearGradient>
<linearGradient id="paint3_linear_262_440" x1="-302.558" y1="23.0027" x2="712.914" y2="23.0027" gradientUnits="userSpaceOnUse">
<stop stop-color="#31457F"/>
<stop offset="1" stop-color="#C42B5B"/>
</linearGradient>
<linearGradient id="paint4_linear_262_440" x1="-216.326" y1="22.9886" x2="650.615" y2="22.9886" gradientUnits="userSpaceOnUse">
<stop stop-color="#31457F"/>
<stop offset="1" stop-color="#C42B5B"/>
</linearGradient>
<linearGradient id="paint5_linear_262_440" x1="2.46012" y1="23" x2="492.164" y2="23" gradientUnits="userSpaceOnUse">
<stop stop-color="#31457F"/>
<stop offset="1" stop-color="#C42B5B"/>
</linearGradient>
<linearGradient id="paint6_linear_262_440" x1="-404.727" y1="23" x2="241.984" y2="23" gradientUnits="userSpaceOnUse">
<stop stop-color="#31457F"/>
<stop offset="1" stop-color="#C42B5B"/>
</linearGradient>
<linearGradient id="paint7_linear_262_440" x1="-9136.84" y1="22.9981" x2="5190.91" y2="22.9981" gradientUnits="userSpaceOnUse">
<stop stop-color="#31457F"/>
<stop offset="1" stop-color="#C42B5B"/>
</linearGradient>
<linearGradient id="paint8_linear_262_440" x1="-536.042" y1="25.6402" x2="200.55" y2="25.6402" gradientUnits="userSpaceOnUse">
<stop stop-color="#31457F"/>
<stop offset="1" stop-color="#C42B5B"/>
</linearGradient>
</defs>
</svg>
