<svg width="48" height="48" viewBox="0 0 48 48" fill="none" xmlns="http://www.w3.org/2000/svg">
<path opacity="0.4" d="M20.7416 4.72839L10.665 9.42138C7.7503 10.7788 5.82686 13.8188 6.01233 17.1555C6.73742 30.2002 10.3828 35.943 19.8552 42.663C22.3645 44.4432 25.6722 44.4476 28.1797 42.6645C37.6813 35.9079 41.1962 30.0839 41.985 17.2006C42.1906 13.8419 40.2641 10.7697 37.3291 9.40277L27.2924 4.72838C25.2072 3.7572 22.8269 3.75721 20.7416 4.72839Z" fill="white"/>
<path d="M22 34C22 32.8954 22.8954 32 24 32C25.1046 32 26 32.8954 26 34C26 35.1046 25.1046 36 24 36C22.8954 36 22 35.1046 22 34Z" fill="white"/>
<path fill-rule="evenodd" clip-rule="evenodd" d="M24 29.5C23.1716 29.5 22.5 28.8284 22.5 28L22.5 14C22.5 13.1716 23.1716 12.5 24 12.5C24.8284 12.5 25.5 13.1716 25.5 14L25.5 28C25.5 28.8284 24.8284 29.5 24 29.5Z" fill="white"/>
</svg>
